<svg xmlns="http://www.w3.org/2000/svg" width="512" height="512" viewBox="0 0 512 512">
  <rect width="512" height="512" fill="#071626" />
  <circle cx="256" cy="256" r="236" fill="#0d2440" />
  <circle cx="256" cy="256" r="216" fill="#0a1e34" stroke="#26e0ff" stroke-width="18" />
  <circle cx="256" cy="286" r="150" fill="#f7fbff" stroke="#8fe9ff" stroke-width="14" />

  <path d="M150 238 C128 198 130 150 168 122 C205 96 242 108 252 142" fill="#e3a063" />
  <path d="M362 238 C384 198 382 150 344 122 C307 96 270 108 260 142" fill="#e3a063" />

  <circle cx="256" cy="306" r="92" fill="#ffd9b0" />
  <ellipse cx="256" cy="330" rx="58" ry="46" fill="#ffe8cc" />
  <circle cx="222" cy="300" r="14" fill="#1b1b1b" />
  <circle cx="290" cy="300" r="14" fill="#1b1b1b" />
  <circle cx="222" cy="295" r="4" fill="#ffffff" />
  <circle cx="290" cy="295" r="4" fill="#ffffff" />
  <circle cx="256" cy="326" r="12" fill="#1b1b1b" />
  <path d="M244 346 C250 360 262 360 268 346" stroke="#1b1b1b" stroke-width="8" fill="none" stroke-linecap="round" />

  <path d="M330 210 C368 222 396 250 404 288" stroke="#b9f1ff" stroke-width="8" fill="none" stroke-linecap="round" />
  <path d="M178 356 C190 380 214 396 244 402" stroke="#b9f1ff" stroke-width="8" fill="none" stroke-linecap="round" />
</svg>
